<?xml version="1.0" standalone="no"?>
<!DOCTYPE svg PUBLIC "-//W3C//DTD SVG 20010904//EN"
 "http://www.w3.org/TR/2001/REC-SVG-20010904/DTD/svg10.dtd">
<svg version="1.0" xmlns="http://www.w3.org/2000/svg"
 width="500.000000pt" height="500.000000pt" viewBox="0 0 500.000000 500.000000"
 preserveAspectRatio="xMidYMid meet">

<g transform="translate(0.000000,500.000000) scale(0.100000,-0.100000)"
fill="#000000" stroke="none">
<path d="M1547 2790 c-53 -14 -87 -33 -124 -72 -85 -88 -84 -263 3 -352 48
-49 88 -68 159 -73 68 -6 123 6 178 40 32 20 36 25 25 40 -12 16 -16 15 -62
-8 -85 -43 -175 -29 -229 34 -82 98 -51 288 56 340 24 12 53 21 65 21 37 0 87
-26 108 -55 16 -21 27 -26 52 -23 l32 3 -20 33 c-35 58 -156 93 -243 72z"/>
<path d="M2748 2788 c-49 -13 -84 -47 -97 -93 -23 -83 18 -140 126 -176 131
-42 153 -60 153 -119 0 -94 -190 -94 -232 0 -10 24 -19 30 -44 30 -28 0 -31
-2 -26 -26 7 -37 61 -88 109 -102 99 -29 217 -2 247 57 9 16 16 52 16 79 0 76
-37 108 -177 152 -39 12 -81 31 -92 42 -47 43 -9 115 66 124 46 6 103 -20 118
-53 7 -16 18 -23 38 -23 25 0 27 3 21 23 -20 67 -133 110 -226 85z"/>
<path d="M3100 2782 c0 -5 48 -114 106 -242 l106 -232 -22 -57 c-32 -87 -56
-121 -84 -121 -13 0 -29 7 -36 15 -19 23 -29 18 -47 -20 -21 -43 -11 -55 49
-62 49 -6 87 17 114 68 21 41 264 640 264 651 0 5 -10 8 -21 6 -17 -2 -35 -37
-97 -186 -41 -101 -79 -179 -83 -175 -4 4 -43 87 -87 183 l-79 175 -41 3 c-23
2 -42 -1 -42 -6z"/>
<path d="M2180 2753 c-31 -12 -60 -47 -66 -81 -6 -31 -9 -34 -38 -29 -39 6
-88 -14 -110 -44 -31 -45 -16 -134 29 -163 20 -13 22 -19 12 -54 -9 -33 -7
-45 9 -73 11 -19 37 -42 58 -53 32 -16 44 -17 76 -7 22 6 47 22 58 35 18 24
19 24 31 4 18 -29 76 -50 117 -42 37 7 80 50 90 90 3 13 1 38 -5 56 -9 25 -9
34 0 37 7 2 23 15 36 29 35 38 32 110 -6 151 -25 27 -36 31 -80 31 -48 0 -51
2 -51 25 0 14 -13 39 -28 56 -21 24 -38 32 -72 35 -25 2 -52 1 -60 -3z m100
-168 c40 -21 60 -53 60 -98 0 -53 -23 -91 -66 -112 -47 -22 -94 -13 -132 25
-53 52 -45 136 17 177 39 27 80 29 121 8z"/>
<path d="M1732 1993 c-11 -22 -3 -103 9 -103 5 0 9 15 9 33 0 18 5 38 12 45 9
9 9 12 -1 12 -11 0 -11 3 -1 15 10 12 10 15 -3 15 -9 0 -20 -8 -25 -17z"/>
<path d="M1850 1950 c0 -33 4 -60 10 -60 6 0 10 27 10 60 0 33 -4 60 -10 60
-6 0 -10 -27 -10 -60z"/>
<path d="M2800 1950 c0 -33 4 -60 10 -60 6 0 10 16 10 35 0 19 5 35 10 35 6 0
10 -16 10 -35 0 -19 5 -35 10 -35 6 0 10 21 10 46 0 41 -2 46 -20 41 -15 -4
-20 0 -20 14 0 10 -4 19 -10 19 -6 0 -10 -27 -10 -60z"/>
<path d="M1960 1959 c-9 -16 -9 -28 -1 -45 15 -33 49 -31 57 3 13 49 -34 84
-56 42z m40 -24 c0 -14 -4 -25 -10 -25 -5 0 -10 11 -10 25 0 14 5 25 10 25 6
0 10 -11 10 -25z"/>
<path d="M2105 1943 c4 -21 9 -41 11 -45 10 -16 24 -7 25 15 l0 22 9 -22 c14
-35 27 -28 34 18 8 48 1 63 -13 28 -10 -24 -10 -24 -10 -1 -1 27 -9 28 -27 5
-13 -17 -13 -17 -14 0 0 9 -5 17 -11 17 -8 0 -9 -12 -4 -37z"/>
<path d="M2282 1968 c-14 -14 -16 -47 -3 -66 10 -16 42 -13 48 5 3 7 -3 9 -16
6 -12 -3 -21 -1 -21 6 0 6 9 11 21 11 15 0 20 5 17 22 -3 26 -28 34 -46 16z
m28 -18 c0 -5 -2 -10 -4 -10 -3 0 -8 5 -11 10 -3 6 -1 10 4 10 6 0 11 -4 11
-10z"/>
<path d="M2420 1934 c0 -24 5 -44 10 -44 6 0 10 14 10 30 0 18 6 33 15 36 23
9 18 22 -10 22 -23 0 -25 -4 -25 -44z"/>
<path d="M2659 1964 c-11 -14 -9 -19 11 -34 l24 -18 -25 -4 c-20 -4 -21 -6 -6
-12 40 -18 65 23 30 50 -17 13 -17 13 0 14 10 0 15 5 12 10 -9 15 -31 12 -46
-6z"/>
<path d="M2954 1956 c-10 -41 -1 -61 26 -61 22 0 25 4 25 40 0 34 -4 40 -22
43 -17 3 -24 -3 -29 -22z m36 -21 c0 -14 -4 -25 -10 -25 -5 0 -10 11 -10 25 0
14 5 25 10 25 6 0 10 -11 10 -25z"/>
<path d="M3100 1917 c1 -51 3 -59 13 -46 7 8 20 18 30 22 14 5 17 16 15 44 -3
33 -6 38 -30 40 -28 2 -28 1 -28 -60z m40 18 c0 -14 -4 -25 -10 -25 -5 0 -10
11 -10 25 0 14 5 25 10 25 6 0 10 -11 10 -25z"/>
</g>
</svg>
